<?xml version="1.0" encoding="UTF-8" standalone="no"?>
<!-- Created with Inkscape (http://www.inkscape.org/) -->

<svg
   xmlns:dc="http://purl.org/dc/elements/1.1/"
   xmlns:cc="http://creativecommons.org/ns#"
   xmlns:rdf="http://www.w3.org/1999/02/22-rdf-syntax-ns#"
   xmlns:svg="http://www.w3.org/2000/svg"
   xmlns="http://www.w3.org/2000/svg"
   xmlns:sodipodi="http://sodipodi.sourceforge.net/DTD/sodipodi-0.dtd"
   xmlns:inkscape="http://www.inkscape.org/namespaces/inkscape"
   width="389.99609"
   height="389.99612"
   viewBox="0 0 103.18646 103.18648"
   version="1.1"
   id="svg8"
   inkscape:version="0.92.4 (5da689c313, 2019-01-14)"
   sodipodi:docname="logo.svg"
   inkscape:export-filename="C:\Users\G.Kimbar\Dropbox\Python\mupf_project\logo.png"
   inkscape:export-xdpi="101.19025"
   inkscape:export-ydpi="101.19025">
  <defs
     id="defs2">
    <inkscape:path-effect
       effect="spiro"
       id="path-effect4761"
       is_visible="true" />
  </defs>
  <sodipodi:namedview
     id="base"
     pagecolor="#ffffff"
     bordercolor="#666666"
     borderopacity="1.0"
     inkscape:pageopacity="0.0"
     inkscape:pageshadow="2"
     inkscape:zoom="1.4142136"
     inkscape:cx="97.642298"
     inkscape:cy="221.16885"
     inkscape:document-units="mm"
     inkscape:current-layer="layer1"
     showgrid="false"
     showguides="true"
     inkscape:guide-bbox="true"
     units="px"
     fit-margin-left="10"
     fit-margin-top="10"
     fit-margin-right="10"
     fit-margin-bottom="10"
     inkscape:window-width="1920"
     inkscape:window-height="1019"
     inkscape:window-x="1912"
     inkscape:window-y="-8"
     inkscape:window-maximized="1">
    <inkscape:grid
       type="xygrid"
       id="grid4747"
       originx="-34.392424"
       originy="-185.20834" />
  </sodipodi:namedview>
  <metadata
     id="metadata5">
    <rdf:RDF>
      <cc:Work
         rdf:about="">
        <dc:format>image/svg+xml</dc:format>
        <dc:type
           rdf:resource="http://purl.org/dc/dcmitype/StillImage" />
        <dc:title />
      </cc:Work>
    </rdf:RDF>
  </metadata>
  <g
     inkscape:label="Layer 1"
     inkscape:groupmode="layer"
     id="layer1"
     transform="translate(-34.392427,-8.6052017)">
    <path
       id="path4830"
       style="color:#000000;font-style:normal;font-variant:normal;font-weight:normal;font-stretch:normal;font-size:medium;line-height:normal;font-family:sans-serif;font-variant-ligatures:normal;font-variant-position:normal;font-variant-caps:normal;font-variant-numeric:normal;font-variant-alternates:normal;font-feature-settings:normal;text-indent:0;text-align:start;text-decoration:none;text-decoration-line:none;text-decoration-style:solid;text-decoration-color:#000000;letter-spacing:normal;word-spacing:normal;text-transform:none;writing-mode:lr-tb;direction:ltr;text-orientation:mixed;dominant-baseline:auto;baseline-shift:baseline;text-anchor:start;white-space:normal;shape-padding:0;clip-rule:nonzero;display:inline;overflow:visible;visibility:visible;opacity:1;isolation:auto;mix-blend-mode:normal;color-interpolation:sRGB;color-interpolation-filters:linearRGB;solid-color:#000000;solid-opacity:1;vector-effect:none;fill:#cccccc;fill-opacity:1;fill-rule:evenodd;stroke:none;stroke-width:0.13229167;stroke-linecap:square;stroke-linejoin:miter;stroke-miterlimit:4;stroke-dasharray:none;stroke-dashoffset:0;stroke-opacity:1;color-rendering:auto;image-rendering:auto;shape-rendering:auto;text-rendering:auto;enable-background:accumulate"
       d="m 56.88201,19.188535 h 58.2073 c 3.88055,0 6.72703,1.227624 8.70334,3.20394 1.97632,1.976316 3.20291,4.821756 3.20291,8.70231 v 58.2073 c 0,3.88056 -1.22659,6.727026 -3.20291,8.703347 -1.97631,1.976316 -4.82279,3.202928 -8.70334,3.202908 h -58.2073 c -3.880554,0 -6.727031,-1.226592 -8.703347,-3.202908 -1.976316,-1.976321 -3.202903,-4.822787 -3.202903,-8.703347 v -58.2073 c 0,-3.880554 1.226587,-6.725994 3.202903,-8.70231 1.976316,-1.976316 4.822793,-3.20394 8.703347,-3.20394 z m 0,-7.9375 c -5.644446,0 -10.736506,1.947381 -14.31644,5.527315 -3.579934,3.579934 -5.52731,8.671994 -5.52731,14.316435 v 58.2073 c 0,5.644441 1.947376,10.736525 5.52731,14.316445 3.579934,3.57993 8.671994,5.52728 14.31644,5.52731 h 58.2073 c 5.64444,0 10.7365,-1.94738 14.31644,-5.52731 3.57993,-3.57992 5.52731,-8.672004 5.52731,-14.316445 v -58.2073 c 0,-5.644441 -1.94738,-10.736501 -5.52731,-14.316435 -3.57994,-3.579934 -8.672,-5.527315 -14.31644,-5.527315 z"
       inkscape:connector-curvature="0" />
    <path
       style="color:#000000;font-style:normal;font-variant:normal;font-weight:normal;font-stretch:normal;font-size:medium;line-height:normal;font-family:sans-serif;font-variant-ligatures:normal;font-variant-position:normal;font-variant-caps:normal;font-variant-numeric:normal;font-variant-alternates:normal;font-feature-settings:normal;text-indent:0;text-align:start;text-decoration:none;text-decoration-line:none;text-decoration-style:solid;text-decoration-color:#000000;letter-spacing:normal;word-spacing:normal;text-transform:none;writing-mode:lr-tb;direction:ltr;text-orientation:mixed;dominant-baseline:auto;baseline-shift:baseline;text-anchor:start;white-space:normal;shape-padding:0;clip-rule:nonzero;display:inline;overflow:visible;visibility:visible;opacity:1;isolation:auto;mix-blend-mode:normal;color-interpolation:sRGB;color-interpolation-filters:linearRGB;solid-color:#000000;solid-opacity:1;vector-effect:none;fill:#cccccc;fill-opacity:1;fill-rule:evenodd;stroke:none;stroke-width:0.13229167;stroke-linecap:square;stroke-linejoin:miter;stroke-miterlimit:4;stroke-dasharray:none;stroke-dashoffset:0;stroke-opacity:1;color-rendering:auto;image-rendering:auto;shape-rendering:auto;text-rendering:auto;enable-background:accumulate"
       d="m 56.88201,21.833336 c -2.469446,0 -4.916705,0.889048 -6.644555,2.616894 -1.727851,1.72785 -2.616894,4.175114 -2.616894,6.644555 v 5.289603 52.917697 c 0,2.469447 0.889043,4.916694 2.616894,6.644556 l 5.613093,-5.613093 C 55.72632,90.209321 55.558061,90.007639 55.558061,89.302085 v -6.613551 h 11.90625 c 2.469441,0 4.916705,-0.889042 6.644555,-2.616893 1.727851,-1.727851 2.616888,-4.175114 2.616894,-6.644555 h -7.9375 c 0,0.705559 -0.168259,0.907229 -0.292487,1.031462 -0.124243,0.124238 -0.325908,0.292486 -1.031462,0.292486 H 55.558061 V 40.353138 H 68.78826 v 22.491646 h 7.9375 V 40.353138 h 11.906249 c 0.705554,-6e-6 0.90723,0.168259 1.031463,0.292486 0.124237,0.124243 0.292491,0.325908 0.292486,1.031462 v 15.875 h 3.971126 l 3.966374,-3.96875 v -11.90625 c 5e-6,-2.469446 -0.889042,-4.916704 -2.616893,-6.644555 -1.727851,-1.727851 -4.175109,-2.616899 -6.644556,-2.616893 H 72.75701 55.558061 v -1.320853 c 0,-0.705554 0.168259,-0.906193 0.292487,-1.030425 0.124243,-0.124243 0.325908,-0.293524 1.031462,-0.293524 h 58.2073 c 0.70555,0 0.90723,0.169297 1.03146,0.293524 l 5.6131,-5.61413 c -1.72786,-1.727846 -4.17511,-2.616894 -6.64456,-2.616894 z"
       id="path4828"
       inkscape:connector-curvature="0" />
    <path
       style="color:#000000;font-style:normal;font-variant:normal;font-weight:normal;font-stretch:normal;font-size:medium;line-height:normal;font-family:sans-serif;font-variant-ligatures:normal;font-variant-position:normal;font-variant-caps:normal;font-variant-numeric:normal;font-variant-alternates:normal;font-feature-settings:normal;text-indent:0;text-align:start;text-decoration:none;text-decoration-line:none;text-decoration-style:solid;text-decoration-color:#000000;letter-spacing:normal;word-spacing:normal;text-transform:none;writing-mode:lr-tb;direction:ltr;text-orientation:mixed;dominant-baseline:auto;baseline-shift:baseline;text-anchor:start;white-space:normal;shape-padding:0;clip-rule:nonzero;display:inline;overflow:visible;visibility:visible;opacity:1;isolation:auto;mix-blend-mode:normal;color-interpolation:sRGB;color-interpolation-filters:linearRGB;solid-color:#000000;solid-opacity:1;vector-effect:none;fill:#cccccc;fill-opacity:1;fill-rule:evenodd;stroke:none;stroke-width:0.13229167;stroke-linecap:square;stroke-linejoin:miter;stroke-miterlimit:4;stroke-dasharray:none;stroke-dashoffset:0;stroke-opacity:1;color-rendering:auto;image-rendering:auto;shape-rendering:auto;text-rendering:auto;enable-background:accumulate"
       d="m 58.205958,43.001035 v 3.96875 15.874999 c 0,2.469447 0.89008,4.913609 2.617931,6.64146 1.727851,1.727846 4.170976,2.616888 6.640422,2.616893 h 10.585397 c 2.469446,-5e-6 4.912572,-0.889047 6.640423,-2.616893 1.72785,-1.727851 2.61793,-4.172013 2.61793,-6.64146 v -15.874999 -3.96875 h -7.9375 v 3.96875 15.874999 c 0,0.705554 -0.169296,0.903097 -0.293523,1.02733 -0.124238,0.124238 -0.321771,0.293518 -1.02733,0.293523 H 67.464311 c -0.705559,-5e-6 -0.903097,-0.169291 -1.027329,-0.293523 -0.124238,-0.124238 -0.293524,-0.321776 -0.293524,-1.02733 v -15.874999 -3.96875 z"
       id="path4749"
       inkscape:connector-curvature="0" />
  </g>
</svg>
